<?xml version="1.0"?>
<svg xmlns="http://www.w3.org/2000/svg" xmlns:xlink="http://www.w3.org/1999/xlink" version="1.1" id="Layer_1" x="0px" y="0px" viewBox="0 0 512 512" style="enable-background:new 0 0 512 512;" xml:space="preserve" width="512px" height="512px" class=""><g><g transform="translate(1 1)">
	<g>
		<g>
			<path d="M464.067,152.6H421.4v-17.067h17.067c5.12,0,8.533-3.413,8.533-8.533C447,56.173,389.827-1,319-1H148.333     c-70.827,0-128,57.173-128,128c0,5.12,3.413,8.533,8.533,8.533h17.067v290.133H28.867c-5.12,0-8.533,3.413-8.533,8.533     c0,42.667,34.133,76.8,76.8,76.8H370.2c42.667,0,76.8-34.133,76.8-76.8c0-5.12-3.413-8.533-8.533-8.533H421.4V203.8h42.667     c14.507,0,25.6-11.093,25.6-25.6S478.573,152.6,464.067,152.6z M404.333,152.6h-51.2c-11.491,0-20.833,6.963-24.224,17.067H319     v-34.133h85.333V152.6z M259.267,220.867h17.067v12.8c0,2.56-1.707,4.267-4.267,4.267h-8.533c-2.56,0-4.267-1.707-4.267-4.267     V220.867z M276.333,203.8h-25.6H216.6h-26.453c-13.653,0-24.747-11.093-24.747-24.747v-43.52h135.68v43.52     C301.08,192.707,289.987,203.8,276.333,203.8z M191,220.867h17.067v12.8c0,2.56-1.707,4.267-4.267,4.267h-8.533     c-2.56,0-4.267-1.707-4.267-4.267V220.867z M148.333,16.067H319c58.027,0,105.813,45.227,110.933,102.4h-17.067h-102.4h-153.6     h-102.4H37.4C42.52,61.293,90.307,16.067,148.333,16.067z M370.2,493.933H97.133c-29.867,0-54.613-22.187-58.88-51.2h16.213     h358.4h16.213C424.813,471.747,400.067,493.933,370.2,493.933z M351.427,315.587C370.2,319,370.2,327.533,370.2,331.8     c0,17.92-22.187,40.96-40.107,48.64C341.187,360.813,348.013,339.48,351.427,315.587z M335.741,302.833     c-0.336,0.787-0.527,1.631-0.527,2.514c-2.56,30.72-12.8,58.88-29.013,80.213c-0.19,0.285-0.352,0.585-0.501,0.889     c-18.498,24.28-43.907,39.218-72.032,39.218c-54.613,0-98.987-56.32-102.4-128h204.8     C335.984,299.399,335.87,301.119,335.741,302.833z M404.333,425.667H288.224c10.242-6.815,19.632-15.479,27.898-25.645     c0.959,0.045,1.919,0.045,2.878,0.045c27.307,0,68.267-36.693,68.267-68.267c0-13.305-5.76-29.47-34.36-33.376     c0.145-3.075,0.227-6.171,0.227-9.29c0-5.12-3.413-8.533-8.533-8.533H122.733c-5.12,0-8.533,3.413-8.533,8.533     c0,59.25,26.446,110.941,64.909,136.533H63V135.533h85.333v43.52c0,17.295,10.579,32.185,25.6,38.536v16.078     c0,11.947,9.387,21.333,21.333,21.333h8.533c11.947,0,21.333-9.387,21.333-21.333v-12.8H242.2v12.8     c0,11.947,9.387,21.333,21.333,21.333h8.533c11.947,0,21.333-9.387,21.333-21.333v-16.078     c12.742-5.387,22.277-16.923,24.879-30.856h10.63c3.391,10.103,12.734,17.067,24.224,17.067h51.2V425.667z M464.067,186.733     h-51.2h-59.733c-5.12,0-8.533-3.413-8.533-8.533s3.413-8.533,8.533-8.533h59.733h51.2c5.12,0,8.533,3.413,8.533,8.533     S469.187,186.733,464.067,186.733z" data-original="#000000" class="active-path" data-old_color="#b7995d" fill="#b7995d"/>
			<path d="M353.133,459.8H114.2c-5.12,0-8.533,3.413-8.533,8.533s3.413,8.533,8.533,8.533h238.933c5.12,0,8.533-3.413,8.533-8.533     S358.253,459.8,353.133,459.8z" data-original="#000000" class="active-path" data-old_color="#b7995d" fill="#b7995d"/>
			<path d="M156.867,101.4h153.6c5.12,0,8.533-3.413,8.533-8.533v-51.2c0-5.12-3.413-8.533-8.533-8.533h-153.6     c-5.12,0-8.533,3.413-8.533,8.533v51.2C148.333,97.987,151.747,101.4,156.867,101.4z M165.4,50.2h136.533v34.133H165.4V50.2z" data-original="#000000" class="active-path" data-old_color="#b7995d" fill="#b7995d"/>
		</g>
	</g>
</g></g> </svg>
