<?xml version="1.0" encoding="iso-8859-1"?>
<!-- Generator: Adobe Illustrator 19.0.0, SVG Export Plug-In . SVG Version: 6.00 Build 0)  -->
<svg xmlns="http://www.w3.org/2000/svg" xmlns:xlink="http://www.w3.org/1999/xlink" version="1.1" id="Capa_1" x="0px" y="0px" viewBox="0 0 512 512" style="enable-background:new 0 0 512 512;" xml:space="preserve" width="512px" height="512px">
<g>
	<g>
		<path d="M483.609,41.534c-20.371-23.576-48.703-37.807-79.778-40.074l-6.517-0.476c-22.526-1.633-44.848,3.214-64.558,14.04    c-3.628,1.993-4.955,6.551-2.962,10.181c1.994,3.627,6.551,4.956,10.181,2.961c17.167-9.43,36.616-13.662,56.248-12.226    l6.518,0.476c27.08,1.975,51.77,14.378,69.523,34.923c17.752,20.545,26.441,46.774,24.466,73.854L486.098,270.97    c-61.159-27.74-116.145-30.152-152.246-27.024c-25.772,2.23-45.496,7.403-56.989,11.11l10.583-145.126    c1.779-24.39,12.283-47.319,29.577-64.562c2.932-2.924,2.94-7.671,0.016-10.602c-2.923-2.931-7.67-2.938-10.602-0.016    c-19.848,19.79-31.904,46.102-33.944,74.089L258.94,294.666c-0.486,6.651,2.311,13.14,7.48,17.356    c0.768,0.627,1.577,1.183,2.415,1.685c3.176,1.903,6.796,2.898,10.465,2.903l-6.532,89.57    c-1.904,26.111,6.473,51.399,23.59,71.209c17.116,19.808,40.922,31.767,67.033,33.671c2.435,0.178,4.863,0.266,7.28,0.266    c23.5,0,45.967-8.335,63.929-23.855c19.809-17.117,31.767-40.922,33.671-67.032l6.474-88.779c0.971,0.14,1.946,0.235,2.924,0.235    c3.707,0,7.402-1.005,10.646-2.983c5.63-3.432,9.277-9.405,9.756-15.979l13.613-186.65    C513.95,95.207,503.979,65.109,483.609,41.534z M453.316,419.348c-1.613,22.116-11.742,42.281-28.521,56.778    c-16.779,14.498-38.195,21.595-60.316,19.98c-45.654-3.33-80.088-43.181-76.758-88.835l6.85-93.922    c33.206-7.794,94.283-14.606,165.525,13.03L453.316,419.348z M483.116,311.846c-0.129,1.778-1.08,3.333-2.606,4.264    c-0.571,0.348-1.182,0.584-1.808,0.706c-0.418,0.081-0.844,0.112-1.268,0.092c-0.638-0.03-1.275-0.175-1.889-0.437    c-1.373-0.586-2.744-1.159-4.11-1.72c-0.386-0.159-0.77-0.31-1.155-0.466c-0.974-0.396-1.948-0.792-2.919-1.175    c-0.507-0.201-1.012-0.393-1.517-0.59c-0.849-0.331-1.696-0.663-2.542-0.984c-0.55-0.209-1.097-0.41-1.646-0.615    c-0.796-0.297-1.591-0.597-2.384-0.886c-0.583-0.213-1.164-0.418-1.744-0.626c-0.756-0.271-1.511-0.543-2.264-0.807    c-0.601-0.21-1.198-0.413-1.798-0.619c-0.731-0.251-1.461-0.503-2.19-0.747c-0.61-0.205-1.217-0.402-1.826-0.602    c-0.714-0.235-1.428-0.47-2.14-0.698c-0.614-0.197-1.224-0.388-1.837-0.58c-0.703-0.221-1.405-0.441-2.105-0.656    c-0.617-0.189-1.231-0.372-1.846-0.557c-0.691-0.207-1.38-0.413-2.069-0.615c-0.62-0.181-1.237-0.357-1.855-0.534    c-0.681-0.194-1.36-0.388-2.039-0.576c-0.618-0.172-1.233-0.34-1.849-0.507c-0.673-0.183-1.345-0.364-2.016-0.541    c-0.618-0.163-1.233-0.323-1.848-0.481c-0.666-0.172-1.33-0.341-1.994-0.507c-0.615-0.154-1.229-0.305-1.841-0.455    c-0.66-0.161-1.318-0.32-1.975-0.475c-0.611-0.145-1.22-0.287-1.829-0.427c-0.654-0.151-1.306-0.299-1.957-0.444    c-0.61-0.136-1.218-0.271-1.826-0.403c-0.646-0.14-1.29-0.277-1.934-0.413c-0.604-0.127-1.208-0.253-1.809-0.376    c-0.645-0.131-1.286-0.259-1.928-0.386c-0.598-0.118-1.195-0.235-1.789-0.349c-0.641-0.122-1.279-0.241-1.918-0.358    c-0.592-0.109-1.182-0.218-1.772-0.323c-0.636-0.113-1.268-0.222-1.901-0.33c-0.587-0.101-1.174-0.202-1.758-0.298    c-0.631-0.104-1.257-0.203-1.885-0.303c-0.582-0.092-1.164-0.186-1.743-0.274c-0.632-0.097-1.259-0.188-1.888-0.28    c-0.568-0.083-1.136-0.167-1.701-0.247c-0.639-0.09-1.273-0.173-1.909-0.258c-0.552-0.074-1.104-0.15-1.654-0.22    c-0.64-0.082-1.275-0.158-1.912-0.235c-0.542-0.066-1.085-0.134-1.623-0.196c-0.649-0.075-1.293-0.144-1.939-0.214    c-0.519-0.056-1.039-0.116-1.555-0.17c-0.685-0.071-1.363-0.135-2.044-0.201c-0.473-0.046-0.948-0.095-1.418-0.138    c-0.781-0.072-1.555-0.136-2.331-0.201c-0.365-0.031-0.734-0.065-1.098-0.094c-1.136-0.091-2.267-0.175-3.391-0.252    c-0.209-0.014-0.415-0.025-0.624-0.039c-0.917-0.061-1.831-0.12-2.739-0.171c-0.411-0.023-0.817-0.042-1.225-0.063    c-0.702-0.037-1.404-0.075-2.101-0.107c-0.456-0.021-0.908-0.037-1.361-0.055c-0.646-0.026-1.292-0.054-1.934-0.076    c-0.462-0.016-0.92-0.027-1.38-0.041c-0.628-0.018-1.256-0.038-1.879-0.053c-0.469-0.011-0.933-0.018-1.399-0.026    c-0.606-0.011-1.211-0.023-1.813-0.03c-0.478-0.006-0.951-0.008-1.426-0.011c-0.585-0.004-1.17-0.009-1.752-0.01    c-0.118,0-0.239-0.002-0.357-0.002c-0.135,0-0.266,0.004-0.401,0.004c-1.792,0.003-3.567,0.019-5.321,0.054    c-0.16,0.003-0.317,0.008-0.477,0.011c-1.796,0.039-3.574,0.091-5.329,0.161c-0.096,0.004-0.19,0.009-0.285,0.013    c-1.814,0.074-3.608,0.162-5.377,0.268c-0.006,0-0.012,0.001-0.018,0.001c-1.783,0.106-3.54,0.229-5.276,0.364    c-0.068,0.005-0.137,0.01-0.204,0.015c-1.677,0.132-3.33,0.279-4.961,0.436c-0.13,0.012-0.261,0.024-0.391,0.037    c-1.584,0.155-3.144,0.323-4.684,0.499c-0.164,0.019-0.33,0.037-0.494,0.056c-1.507,0.175-2.991,0.361-4.454,0.555    c-0.185,0.024-0.371,0.048-0.554,0.073c-1.438,0.194-2.854,0.396-4.248,0.606c-0.196,0.029-0.392,0.059-0.587,0.088    c-1.376,0.21-2.729,0.427-4.061,0.65c-0.199,0.033-0.398,0.067-0.596,0.1c-1.32,0.224-2.618,0.455-3.893,0.69    c-0.192,0.036-0.383,0.071-0.574,0.107c-1.27,0.238-2.519,0.48-3.743,0.727c-0.18,0.036-0.358,0.073-0.537,0.109    c-1.224,0.25-2.427,0.503-3.604,0.76c-0.161,0.035-0.318,0.07-0.478,0.105c-1.183,0.26-2.344,0.524-3.477,0.79    c-0.136,0.032-0.269,0.064-0.405,0.096c-1.147,0.271-2.272,0.544-3.367,0.819c-0.1,0.025-0.197,0.05-0.297,0.075    c-1.122,0.283-2.218,0.566-3.284,0.85c-0.053,0.014-0.103,0.028-0.155,0.042c-1.103,0.295-2.178,0.59-3.219,0.883    c-1.521,0.428-2.791,0.132-3.688-0.281c-0.539-0.248-0.944-0.538-1.19-0.738c-1.405-1.148-2.136-2.842-2.004-4.648l1.781-24.429    c8.601-3.131,30.176-9.98,60.116-12.5c35.127-2.953,89.175-0.364,149.142,28.115L483.116,311.846z" fill="#B7995D"/>
	</g>
</g>
<g>
	<g>
		<path d="M253.057,294.66l-13.554-185.823C234.825,44.689,178.825-3.673,114.683,0.985l-6.517,0.476    C44.016,6.138-4.365,62.133,0.313,126.282l1.645,22.556c0.301,4.129,3.896,7.213,8.021,6.932c4.129-0.302,7.233-3.893,6.932-8.022    l-1.645-22.556C11.19,69.288,53.352,20.49,109.256,16.414l6.517-0.476c55.898-4.082,104.7,38.087,108.777,93.99l10.584,145.126    c-11.493-3.707-31.218-8.88-56.99-11.11c-36.1-3.123-91.087-0.715-152.246,27.024l-6.789-93.093    c-0.301-4.129-3.886-7.241-8.021-6.932c-4.129,0.302-7.233,3.893-6.931,8.022l9.77,133.964c0.021,0.294,0.057,0.586,0.091,0.877    c0.014,0.116,0.021,0.233,0.036,0.348c0.006,0.044,0.015,0.086,0.021,0.13c0.752,5.34,3.598,10.177,7.876,13.432    c0.556,0.424,1.13,0.826,1.733,1.193c0.796,0.485,1.618,0.91,2.461,1.276c0.017,0.007,0.032,0.016,0.049,0.023    c0.217,0.094,0.438,0.172,0.657,0.258c2.394,0.939,4.931,1.424,7.479,1.424c0.978,0,1.953-0.095,2.924-0.235l6.475,88.779    c1.904,26.11,13.862,49.916,33.671,67.032c17.963,15.52,40.427,23.856,63.929,23.855c2.415,0,4.846-0.089,7.28-0.266    c53.899-3.931,94.553-50.981,90.621-104.881l-1.192-16.355c-0.301-4.128-3.894-7.227-8.021-6.932    c-4.129,0.302-7.233,3.893-6.932,8.022l1.193,16.355c3.33,45.654-31.104,85.506-76.758,88.835    c-22.113,1.612-43.536-5.483-60.315-19.98c-16.779-14.498-26.907-34.662-28.521-56.778l-6.78-92.968    c71.242-27.636,132.319-20.823,165.525-13.029l3.459,47.44c0.301,4.129,3.898,7.245,8.021,6.932    c4.129-0.302,7.233-3.893,6.932-8.023l-3.143-43.089c4.636-0.006,9.202-1.586,12.88-4.588    C250.746,307.799,253.543,301.311,253.057,294.66z M236.097,300.405c-0.492,0.402-1.622,1.159-3.183,1.224    c-0.52,0.021-1.089-0.034-1.696-0.205c-35.862-10.114-108.852-21.608-194.767,15.047c-1.636,0.697-3.446,0.565-4.967-0.361    c-0.191-0.116-0.373-0.242-0.545-0.378c-1.206-0.946-1.948-2.332-2.062-3.891l-1.816-24.899    c59.969-28.479,114.018-31.067,149.142-28.115c29.946,2.519,51.521,9.371,60.117,12.5l1.782,24.428    c0.017,0.226,0.019,0.45,0.009,0.672C238.041,297.979,237.328,299.401,236.097,300.405z" fill="#B7995D"/>
	</g>
</g>
<g>
</g>
<g>
</g>
<g>
</g>
<g>
</g>
<g>
</g>
<g>
</g>
<g>
</g>
<g>
</g>
<g>
</g>
<g>
</g>
<g>
</g>
<g>
</g>
<g>
</g>
<g>
</g>
<g>
</g>
</svg>
