<?xml version="1.0" encoding="iso-8859-1"?>
<!-- Generator: Adobe Illustrator 19.0.0, SVG Export Plug-In . SVG Version: 6.00 Build 0)  -->
<svg xmlns="http://www.w3.org/2000/svg" xmlns:xlink="http://www.w3.org/1999/xlink" version="1.1" id="Capa_1" x="0px" y="0px" viewBox="0 0 477.037 477.037" style="enable-background:new 0 0 477.037 477.037;" xml:space="preserve" width="512px" height="512px">
<g>
	<g>
		<path d="M474.647,193.938c-0.01-0.007-0.019-0.014-0.029-0.02l-26.04-18.48c-0.123-0.156-0.257-0.303-0.4-0.44    c-0.175-0.104-0.364-0.185-0.56-0.24l-147.28-104.56c-0.68-0.475-1.491-0.726-2.32-0.72h-55.6v-20.44    c13.45-2.209,22.563-14.904,20.354-28.354c-2.209-13.45-14.904-22.563-28.354-20.354c-11.924,1.958-20.677,12.263-20.68,24.347    c0,2.209,1.791,4,4,4c2.209,0,4-1.791,4-4c0-9.212,7.468-16.68,16.68-16.68c9.212,0,16.68,7.468,16.68,16.68    c0,9.212-7.468,16.68-16.68,16.68c-2.209,0-4,1.791-4,4v24h-55.6c-0.829-0.006-1.64,0.245-2.32,0.72l-147.28,104.68    c-0.196,0.055-0.384,0.136-0.56,0.24c-0.143,0.137-0.277,0.284-0.4,0.44l-25.84,18.48c-1.809,1.268-2.248,3.762-0.98,5.571    c0.007,0.01,0.014,0.019,0.02,0.029l64.52,91c0.614,0.871,1.549,1.461,2.6,1.64c1.038,0.171,2.101-0.073,2.96-0.68l57.84-40.96    v222.52c0,2.209,1.791,4,4,4h210.08c2.209,0,4-1.791,4-4v-222.52l57.84,41.08c0.859,0.607,1.922,0.851,2.96,0.68    c1.05-0.179,1.986-0.769,2.6-1.64l64.72-91.12C476.862,197.72,476.445,195.221,474.647,193.938z M298.859,78.957l15.56,11    l-60.36,102.16l-11-18.6L298.859,78.957z M234.419,77.477v13.36l-20.28-0.08c-2.209,0-4,1.791-4,4c0,2.209,1.791,4,4,4h48.56    c2.209,0,4-1.791,4-4c0-2.209-1.791-4-4-4h-20.28v-13.28h48l-52,88l-52-88H234.419z M177.979,78.957l120.16,203.56h-20.96    l-113.96-193.08L177.979,78.957z M133.372,238.804c-0.813,0.001-1.606,0.25-2.273,0.713l-34.4,24.4l-5.32-7.48    c-1.281-1.8-3.78-2.221-5.58-0.94c-1.8,1.281-2.221,3.78-0.94,5.58l5.32,7.48l-20,14.2l-60.08-84.64l20-14.16l44,61.68    c0.747,1.049,1.953,1.674,3.24,1.68c0.834-0.005,1.645-0.271,2.32-0.76c1.795-1.274,2.224-3.758,0.96-5.56l-44-61.68l120-85.24    l111.28,188.44h-69.84l-5.16-20.52c-2.418-9.779-12.306-15.747-22.085-13.329c-9.779,2.418-15.747,12.306-13.329,22.085    c1.25,5.057,4.603,9.338,9.214,11.764h-29.32v-39.72C137.375,240.588,135.581,238.8,133.372,238.804z M224.699,304.717l0.08,0.2    c1.381,5.523-1.977,11.119-7.5,12.5c-5.523,1.381-11.119-1.977-12.5-7.5l-4.32-17.24l17.04,4.88    C221.005,298.488,223.749,301.217,224.699,304.717z M168.179,259.077c2.619-2.552,6.408-3.499,9.92-2.48    c3.525,0.968,6.25,3.769,7.12,7.32l4.32,17.24l-17.12-4.88c-3.536-0.975-6.262-3.794-7.12-7.36h0.08    C164.437,265.372,165.511,261.596,168.179,259.077z M301.979,469.038h-23.08v-53.04c0-2.209-1.791-4-4-4c-2.209,0-4,1.791-4,4    v53.04h-133.52v-178.52h45.92l-25.8,45.76c-1.079,1.922-0.399,4.355,1.52,5.44c0.598,0.339,1.273,0.518,1.96,0.52    c1.443-0.003,2.773-0.782,3.48-2.04l21.56-38.2v78.08c0,2.209,1.791,4,4,4c2.209,0,4-1.791,4-4v-80.56l3.04,12    c1.548,6.342,6.395,11.357,12.68,13.12c1.652,0.471,3.362,0.714,5.08,0.72c10.093-0.227,18.091-8.593,17.864-18.687    c-0.156-6.952-4.243-13.213-10.544-16.153h48.76v76.68c0,2.209,1.791,4,4,4c2.209,0,4-1.791,4-4v-76.68h23.08V469.038z     M339.459,469.038l-29.48,0v-178.52h29.48V469.038z M406.659,282.757l-20-14.2l36-50.56c1.273-1.791,0.862-4.274-0.92-5.56    c-1.791-1.294-4.291-0.891-5.585,0.899c-0.005,0.007-0.01,0.014-0.015,0.021l-36,50.56l-34.4-24.4    c-1.815-1.259-4.307-0.809-5.567,1.007c-0.463,0.668-0.712,1.461-0.713,2.273v39.72h-32l-48.76-82.56l62.2-105.44l119.32,84.8    l-4.64,6.52c-1.264,1.802-0.835,4.286,0.96,5.56c0.655,0.499,1.457,0.766,2.28,0.76c1.302,0.007,2.525-0.62,3.28-1.68l4.64-6.52    l20,14.16L406.659,282.757z" fill="#B7995D"/>
	</g>
</g>
<g>
	<g>
		<path d="M433.222,196.678c-1.678-1.437-4.203-1.241-5.64,0.437c-0.15,0.176-0.285,0.364-0.403,0.563h0l-1.52,2.16    c-1.273,1.791-0.862,4.274,0.92,5.56c0.675,0.489,1.486,0.755,2.32,0.76c1.302,0.007,2.525-0.62,3.28-1.68l1.48-2.16    C435.096,200.639,434.9,198.114,433.222,196.678z" fill="#B7995D"/>
	</g>
</g>
<g>
	<g>
		<path d="M274.899,388.637c-2.209,0-4,1.791-4,4v7.08c0,2.209,1.791,4,4,4c2.209,0,4-1.791,4-4v-7.08    C278.899,390.428,277.108,388.637,274.899,388.637z" fill="#B7995D"/>
	</g>
</g>
<g>
</g>
<g>
</g>
<g>
</g>
<g>
</g>
<g>
</g>
<g>
</g>
<g>
</g>
<g>
</g>
<g>
</g>
<g>
</g>
<g>
</g>
<g>
</g>
<g>
</g>
<g>
</g>
<g>
</g>
</svg>
